<svg xmlns="http://www.w3.org/2000/svg" width="10.252" height="10.259" viewBox="0 0 10.252 10.259"><defs><style>.a{fill:#2bb673;}.b{fill:#fff;}</style></defs><g transform="translate(-2.9 -2.7)"><path class="a" d="M13.152,7.827V7.811c0-.034,0-.071,0-.1s0-.04,0-.061,0-.04,0-.059,0-.049,0-.073,0-.03,0-.047l-.006-.079c0-.01,0-.024,0-.034,0-.028-.006-.057-.008-.087,0-.006,0-.016,0-.022a5.129,5.129,0,0,0-10.192,0c0,.006,0,.016,0,.022,0,.028-.006.057-.008.087a.2.2,0,0,0,0,.034l-.006.079c0,.016,0,.03,0,.047s0,.049,0,.073,0,.041,0,.059,0,.04,0,.061,0,.071,0,.1v.036c0,.034,0,.071,0,.1s0,.04,0,.061,0,.04,0,.059,0,.049,0,.073,0,.03,0,.047l.006.079c0,.01,0,.024,0,.034,0,.028.006.057.008.087,0,.006,0,.016,0,.022a5.128,5.128,0,0,0,10.19,0c0-.006,0-.016,0-.022,0-.028.006-.057.008-.087a.2.2,0,0,0,0-.034l.006-.079c0-.016,0-.03,0-.047s0-.049,0-.073,0-.04,0-.059,0-.041,0-.061,0-.071,0-.1V7.833s0,0,0-.006Z" transform="translate(0 0)"/><g transform="translate(4.59 5.022)"><path class="b" d="M89.172,122.934l-2.788-2.323a.046.046,0,0,1-.006-.065l.818-.982a.046.046,0,0,1,.065-.006l1.78,1.482a.045.045,0,0,0,.065-.006l3.068-3.651a.046.046,0,0,1,.065-.006l.98.822a.046.046,0,0,1,.006.065l-3.91,4.657A.1.1,0,0,1,89.172,122.934Z" transform="translate(-86.367 -117.367)"/></g></g></svg>