<?xml version="1.0" encoding="utf-8"?>
<!-- Generator: Adobe Illustrator 24.0.1, SVG Export Plug-In . SVG Version: 6.00 Build 0)  -->
<svg version="1.1" id="Layer_1" xmlns="http://www.w3.org/2000/svg" xmlns:xlink="http://www.w3.org/1999/xlink" x="0px" y="0px"
	 viewBox="0 0 300 300" style="enable-background:new 0 0 300 300;" xml:space="preserve">
<style type="text/css">
	.st0{fill:#1FC4C4;}
	.st1{fill:#FFFFFF;}
	.st2{fill:#004467;}
	.st3{fill:#1FC3C3;}
	.st4{fill:#014467;}
	.st5{fill:none;stroke:#014467;stroke-width:2.8346;stroke-linecap:round;stroke-miterlimit:10;}
	.st6{fill:#125171;stroke:#014467;stroke-width:2.8346;stroke-linecap:round;stroke-linejoin:round;stroke-miterlimit:10;}
</style>
<g>
	<path class="st0" d="M150,11.7c76.4,0,138.3,61.9,138.3,138.3S226.4,288.3,150,288.3S11.7,226.4,11.7,150S73.6,11.7,150,11.7
		 M150,0.2c-40,0-77.6,15.6-105.9,43.9S0.2,110,0.2,150s15.6,77.6,43.9,105.9S110,299.8,150,299.8s77.6-15.6,105.9-43.9
		S299.8,190,299.8,150s-15.6-77.6-43.9-105.9S190,0.2,150,0.2L150,0.2z"/>
	<circle class="st1" cx="150" cy="150" r="138.3"/>
</g>
<path class="st2" d="M160.4,219.1c-1.8,0.8-5.3,0.7-7-0.2c-3.6-2.3-4.8-5.4-4.8-9.6c0.1-18.2,0.1-36.4,0.1-54.7c0-0.9,0-1.8,0-2.7
	c0-1-0.4-1.7-1.6-1.7c-1.2,0-1.6,0.6-1.6,1.6c0,0.9,0,1.8,0,2.7c0,18.2-0.1,36.4,0.1,54.7c0,4.4-1.2,7.7-5.1,9.9
	c-2.1,0.8-4.8,0.9-6.9-0.2c-3.7-2-4.8-5.2-4.8-9.3c0.1-23.7,0-47.4,0.1-71.1c0-2.8-0.5-4.3-3.5-5.1c-4.7-1.2-6.9-4.5-6.8-9
	c0.2-6.8,1-10.8,3.3-17.2c3-8.2,6.5-11.7,15.9-12.9c6.6-0.8,13.5-1.1,20.2-0.2c6.4,0.8,9.7,3,12.8,7.9c2.9,4.6,4.7,9,5.7,14.3
	c0.5,2.9,1.4,2.8,3.3,1.2c1.3-1.1,2.6-2,3.9-3.1c2-1.8,4.2-2.9,7-1.7c2.9,1.2,3.2,5.1,1.5,6.8c-1.5,1.5-4.1,3.8-8.2,7.1
	c-1.5,1.2-4.6,3.8-6.6,4.4c-5.4,1.5-9.3-1.1-10.3-6.5c-0.2-1.2-0.5-2.4-1.4-3.6c-0.1,1.4-0.2,2.8-0.2,4.2c0,28,0,56,0.1,84
	C165.5,213.6,164.2,216.9,160.4,219.1z"/>
<path class="st3" d="M222.8,119.1c1.5-2.3,2.4-5.1,2.4-8.1c0-8.3-6.7-15-15-15c-8.3,0-15,6.7-15,15c0,3,0.9,5.8,2.4,8.1H222.8z"/>
<path class="st3" d="M192,215.5l36.4,0c0.7,0,1.2-0.6,1.2-1.2v-28.1c0-0.7-0.6-1.2-1.2-1.2l-36.4,0c-0.7,0-1.2,0.6-1.2,1.2
	c0,4.9,0,23.2,0,28.1C190.8,215,191.4,215.5,192,215.5z"/>
<path class="st4" d="M89.3,213.5H48.1v-2.2c0-2.7,2.2-4.8,4.8-4.8h31.5c2.7,0,4.8,2.2,4.8,4.8V213.5z"/>
<path class="st4" d="M75.9,213.5H61.6v-64.1c0-2,1.7-3.7,3.7-3.7h6.9c2,0,3.7,1.7,3.7,3.7V213.5z"/>
<path class="st5" d="M82.2,148.4c0,0,2.1,11.6,13.4,10.9s14.5-17.1,22-23.5"/>
<path class="st5" d="M73.6,149.8c0,0,1.2,12.5,9.5,16.8c5.7,3,14-1.6,18.3-18.2s12.1-19.8,12.1-19.8"/>
<circle class="st4" cx="51" cy="217.6" r="2.6"/>
<circle class="st4" cx="86.5" cy="217.6" r="2.6"/>
<path class="st6" d="M178.9,113.8c0,0,0.7-0.3,1.9-0.3"/>
<path class="st4" d="M85.5,108.4H52c-2.1,0-3.8,1.7-3.8,3.8v27.1c0,2.1,1.7,3.8,3.8,3.8h33.5c2.1,0,3.8-1.7,3.8-3.8v-27.1
	C89.3,110.1,87.6,108.4,85.5,108.4z M56.2,138.6c-1.8,0-3.3-1.5-3.3-3.3c0-1.8,1.5-3.3,3.3-3.3c1.8,0,3.3,1.5,3.3,3.3
	C59.5,137.1,58,138.6,56.2,138.6z M65.5,138.6c-1.8,0-3.3-1.5-3.3-3.3c0-1.8,1.5-3.3,3.3-3.3c1.8,0,3.3,1.5,3.3,3.3
	C68.8,137.1,67.4,138.6,65.5,138.6z M82.9,138.2h-8.2c-0.8,0-1.5-0.5-1.5-1.1s0.7-1.1,1.5-1.1h8.2c0.8,0,1.5,0.5,1.5,1.1
	S83.7,138.2,82.9,138.2z M82.9,134.4h-8.2c-0.8,0-1.5-0.5-1.5-1.1c0-0.6,0.7-1.1,1.5-1.1h8.2c0.8,0,1.5,0.5,1.5,1.1
	C84.4,133.9,83.7,134.4,82.9,134.4z M84.5,129.3H52.7v-16.2h31.8V129.3z"/>
<path class="st4" d="M137.8,92.3c6.6-0.8,13.5-1.1,20.2-0.2c1.7,0.2,3.2,0.6,4.6,1c0.2,0.1,0.4,0.1,0.6,0.2c0.8-1.8,1.2-3.8,1.2-5.8
	c0-8.4-7-15.2-15.6-15.2s-15.6,6.8-15.6,15.2c0,1.7,0.3,3.9,0.9,5.5C135.1,92.7,136.4,92.5,137.8,92.3z"/>
<path class="st3" d="M240.4,165.1h-8.8c-2.8,0-5.1-2.3-5.1-5.1v-15.8c0-0.6,0.5-1.1,1.1-1.1s1.1,0.5,1.1,1.1V160
	c0,1.6,1.3,2.9,2.9,2.9h0.5c7.8,0,12.1,0.1,14.1,1.5c0,0,0.1,0,0.1,0c2.1-0.3,4.4-1.2,4.4-3.5c0,0,0-0.5,0-0.5
	c0-3.2-2.9-3.8-5.1-4.2c-2.8-0.5-6.6,0.6-8.1-1.9c-1.4-2.4-0.9-5.9-1.3-8.9c-0.1-0.6,0-1.3-0.1-1.9c-1.4-8.3-4.2-16.4-11.8-21.7
	c-0.1-0.1-0.2-0.1-0.3-0.2c0,0,0,0,0,0c-0.5-0.2-1.1-0.4-1.7-0.4h-26.7c-0.1,0-0.2,0-0.3,0c-0.7,0.1-1.4,0.4-2,0.8
	c-3.3,2.3-6.2,4.6-9.2,7.3c-0.9,0.8-1.4,1.8-1.8,2.8c-2,5.5-3,11.6-3.3,17.6c-0.3,5.4,1.1,10.3,4.3,12.4c1.3,0.8,2.2,1.2,3.9,1.7
	c0.7,0.1,1.5,0.1,1.5-0.3c0,0,0,0,0,0v-19.4c0-0.6,0.5-1.1,1.1-1.1s1.1,0.5,1.1,1.1v29.7c0,4.7,3.8,8.7,8.5,8.7c0,0,0.1,0,0.1,0
	c9.7,0,19.3,0.1,29,0c3.2,0,4.5,1.1,4.3,4.6v19.7c0.1,0.9,0.1,1.9,0.3,2.8c0.6,3.9,4.7,8.1,8.2,8.6c3.1,0.4,6.8-2.2,8.6-6.3v0
	c0.2-1,0.3-2.1,0.4-3.1v-33.9C250.2,169.5,245.8,165.1,240.4,165.1z M205.4,135.9c0,1.3-1,2.3-2.3,2.3h-2.7c-1.3,0-2.3-1-2.3-2.3
	v-2.7c0-1.3,1-2.3,2.3-2.3h2.7c1.3,0,2.3,1,2.3,2.3V135.9z M219.5,135.9c0,1.3-1,2.3-2.3,2.3h-2.7c-1.3,0-2.3-1-2.3-2.3v-2.7
	c0-1.3,1-2.3,2.3-2.3h2.7c1.3,0,2.3,1,2.3,2.3V135.9z"/>
</svg>
