<?xml version="1.0" encoding="utf-8"?>
<!-- Generator: Adobe Illustrator 24.0.1, SVG Export Plug-In . SVG Version: 6.00 Build 0)  -->
<svg version="1.1" id="Layer_1" xmlns="http://www.w3.org/2000/svg" xmlns:xlink="http://www.w3.org/1999/xlink" x="0px" y="0px"
	 viewBox="0 0 300 300" style="enable-background:new 0 0 300 300;" xml:space="preserve">
<style type="text/css">
	.st0{fill:#1FC4C4;}
	.st1{fill:#FFFFFF;}
	.st2{fill:#004467;}
	.st3{fill:#1FC4C4;stroke:#FFFFFF;stroke-width:0.2835;stroke-miterlimit:10;}
</style>
<g>
	<path class="st0" d="M150,11.7c76.4,0,138.3,61.9,138.3,138.3S226.4,288.3,150,288.3S11.7,226.4,11.7,150S73.6,11.7,150,11.7
		 M150,0.2c-40,0-77.6,15.6-105.9,43.9S0.2,110,0.2,150s15.6,77.6,43.9,105.9S110,299.8,150,299.8s77.6-15.6,105.9-43.9
		S299.8,190,299.8,150s-15.6-77.6-43.9-105.9S190,0.2,150,0.2L150,0.2z"/>
	<circle class="st1" cx="150" cy="150" r="138.3"/>
	<path class="st2" d="M72.2,170.4c51.9,0,103.7,0,155.6,0c0.2,0,0.4,0,0.7,0c0.5,0,1.1,0,1.6,0c2.5-0.1,3.7-1.3,3.8-3.7
		c0.1-2.2,0.1-4.4,0-6.5l0-1.4c0-0.5-0.1-1-0.1-1.3c0-0.1,0-0.1,0-0.2c-0.6,0.2-1.2,0.5-1.7,0.7c-1.4,0.6-2.7,1.2-4.1,1.4
		c-3.5,0.7-6.8-0.3-9.7-2.8c-1.5-1.3-2.9-2.7-4.4-4c-0.6-0.6-1.2-1.2-1.9-1.7c-5.1,3.4-10.6,3.7-16.2,0.9c-2.8,2.2-5.5,3.2-8.3,3.2
		c-1.7,0-2.8-0.7-3.2-2.1c-0.2-0.5-0.5-1-0.7-1.5c-0.1-0.1-0.2-0.3-0.2-0.4l-7.4,1.8c-0.4,0.7-0.9,1.3-1.4,2
		c-1.2,1.7-2.4,3.5-3.5,5.3c-1.3,2.1-3,3.4-5.6,3.9c-2.3,0.5-4.7,1.1-7,1.7c-1.3,0.3-2.6,0.6-3.9,0.9c-1,0.2-2.1,0.5-3.1,0.7
		c-2.7,0.6-5.4,1.3-8.2,1.9c-3.1,0.6-5.9-1.2-6.7-4.4c-0.7-2.9,0.8-5.7,3.7-6.8c0.4-0.1,0.7-0.2,1.1-0.3c0.2,0,0.4-0.1,0.5-0.1
		l4.9-1.2c4.4-1.1,8.9-2.2,13.4-3.2l0.2,0c1-0.2,1.8-0.4,2-1.7c-1.1-0.3-2.2-0.2-3.6,0.2c-0.6,0.2-1.3,0.4-1.9,0.6
		c-2.7,0.8-5.4,1.7-8,2.8c-4.2,1.7-8,2-12,0.7c-6-1.9-12.2-3.5-18.1-5.1l-2.2-0.6c-1.8-0.5-3.5-0.7-5.1-0.7c-2.5,0.1-5,0.3-7.5,0.5
		c-0.6,0.1-1.1,0.1-1.7,0.2c-1.3,0.1-2.6,0.2-3.9,0.3c-4.3,0.4-8.8,0.7-13.2,1.3c-2.6,0.3-4.7-0.1-6.7-1.4c-0.6-0.4-1.3-0.8-1.9-0.8
		c-1.3-0.1-2.5-0.1-3.6-0.1c-1.1,0-2.2,0-3.3,0.1c-2.2,0.1-3.3,1.3-3.3,3.4c-0.1,4.8-0.1,9.6,0,14.2c0,2,1.1,3,3.1,3.2
		c0.7,0.1,1.5,0.1,2.2,0.1C71.7,170.4,72,170.4,72.2,170.4z"/>
	<path class="st0" d="M184.1,135.7c-2.4-0.5-4.4-1.7-6-3.5c-0.3-0.3-0.6-0.7-0.9-1c-0.5-0.5-0.9-0.9-1.3-1.4c-0.7-0.9-1.6-1.4-3-1.6
		c-3.7-0.5-5.1,0.3-7.2,4l0,0.1l-0.1,0c-7.9,2.2-14.2,3-20.4,2.6l-0.2,0l0-0.1c0-0.3-0.1-0.5-0.1-0.7c-0.1-0.5-0.2-1-0.2-1.5
		c-0.2-2.4-0.4-4.9-0.6-7.3c-0.2-2.8-0.5-5.6-0.7-8.5c-0.3-3.9-2.2-5.8-6.1-6c-6.4-0.4-13-0.8-19.4-1.1c-2.1-0.1-4.3-0.2-6.4-0.3
		c-0.6,0-1.3-0.1-1.9,0c-1.6,0.2-3.1,1.1-4,2.5c-0.9,1.3-1.2,3-0.9,4.5c0.6,2.5,2.8,4.2,5.7,4.4c1.3,0.1,2.6,0.2,3.9,0.2
		c1.7,0.1,3.4,0.2,5,0.3c1.3,0.1,2.4-0.2,3.6-1c2.5-1.7,5.2-3.5,8.3-5.4c1.1-0.7,2.1-1.2,3-1.5c2.6-0.9,5.3,0,6.9,2.3
		c1.8,2.5,1.7,5.4-0.3,7.5c-0.8,0.9-1.9,1.6-2.9,2.3l-0.2,0.2c-1.1,0.7-2.1,1.4-3.3,2.1c-0.5,0.3-0.9,0.6-1.4,0.9l0.9,10.2
		c0,0.1,0,0.3,0,0.4c0.1,0.6,0.1,1.1-0.2,1.4c-0.2,0.2-0.5,0.2-1.1,0.1c-5.5-1.5-9.6-2.7-14.3-4.1c-3.1-1-6.3-1.2-10.4-0.6
		c-0.3,0-0.5,0.1-0.8,0.1c-0.5,0.1-1,0.1-1.5,0.2c-2.7,0.2-5.4,0.5-8.1,0.7c-4.8,0.4-9.8,0.9-14.6,1.4c-3.5,0.3-5.8,2.8-5.6,6.1
		c0,1.4,0.9,2.9,2,3.9c0.9,0.7,2.3,1.6,4.4,1.4l1.8-0.2c1.3-0.1,2.5-0.3,3.8-0.4c2.5-0.2,5-0.5,7.5-0.7c3.9-0.4,7.7-0.7,11.6-1.1
		c1-0.1,1.9-0.1,2.8-0.1c2,0,3.7,0.2,5.4,0.7c3.6,1,7.2,2,10.7,3c3.6,1,7.3,2,10.9,3.1c3.1,0.9,5.9,0.8,8.6-0.4
		c5.5-2.3,11.5-4.6,18-4.7l1.4-2.1c1.2-1.8,2.4-3.6,3.6-5.3l0.3-0.4c0.4-0.6,0.8-1.2,1.3-1.8c1.7-1.8,4.8-2.2,6.9-0.8
		c2.2,1.5,3,4.2,1.8,6.6c-0.3,0.7-0.7,1.3-1.2,2c-0.2,0.4-0.5,0.8-0.7,1.2c-0.2,0.4-0.4,0.8-0.7,1.3c-0.1,0.2-0.2,0.4-0.3,0.6
		c0.3-0.1,0.5-0.1,0.7-0.2c1.7-0.4,3.1-0.7,4.3-1.8c-0.1-0.4-0.2-0.7-0.3-1.1c-0.5-1.7-1-3.5-0.4-5.3c0.9-2.6,3.1-3.6,4.9-4.2
		C185.6,136.1,185.6,136.1,184.1,135.7z"/>
	<path class="st2" d="M126.5,174.6c-5.8,9.5-10.9,18-15.7,26c-0.2,0.3-0.3,0.5-0.5,0.8c-0.7,1.1-1.4,2.3-1.9,3.5
		c-1.4,3.2-0.3,6.9,2.7,8.7c3,1.9,6.7,1.3,9-1.5c0.7-0.8,1.3-1.8,1.9-2.7l0.1-0.2c6.9-11.4,13.8-22.8,20.7-34.2
		c0.3-0.5,0.5-0.9,0.8-1.5c0.1-0.2,0.2-0.4,0.3-0.6h-16.2c-0.1,0.2-0.2,0.3-0.4,0.5C127,173.7,126.7,174.1,126.5,174.6z"/>
	<path class="st2" d="M179.3,126.5c-0.2-0.4-0.3-0.9-0.5-1.3c-1.1-3-2.7-6.2-4.7-9.7c-1.7-2.9-3.6-4.8-5.8-5.7c-0.1,0-0.1,0-0.1,0
		c-0.1,0-0.1,0-0.2,0.1c-6.3,4.9-14.9,4.5-20.1-0.9c-0.4-0.4-1.3-0.8-1.9-0.8c-1.4,0-2.7,0.1-4.3,0.2l-0.8,0.1
		c-0.2,0-0.4,0.2-0.5,0.4c-0.1,0.2,0,0.4,0.1,0.5c3.2,1.4,4.7,4,4.9,8.2c0.2,3.3,0.4,6.6,0.8,10.5c0.1,1.2,0.3,2.4,0.5,3.5
		c0.1,0.5,0.1,0.9,0.2,1.4c6.7,0,12.1-0.8,17-2.4c1.7-2.7,4-4.4,6.6-4.7c0.3,0,0.5,0,0.8,0c2.3,0,4.5,1.1,6.4,3.1
		c0.9,0.9,1.8,1.8,2.7,2.7l0.1,0.1c0.8,0.8,1.6,1.2,2.5,1.3C180.9,131.3,180.1,128.8,179.3,126.5z"/>
	<path class="st2" d="M185.4,206.3c0-7,0-14.1,0-21l0-5.1c0-2.9-0.8-5.3-2.5-7.4h-15.8c0.3,0.6,0.6,1.1,0.8,1.6
		c0.7,1.3,1.2,2.4,1.9,3.4c1.1,1.7,1.5,3.6,1.5,6.1c-0.1,5.4-0.1,11,0,16.3c0,1.7,0,3.4,0,5.2l0,0.6c0,0.9,0,1.8,0.1,2.6
		c0.3,2.1,1.5,3.9,3.3,5c1.9,1.1,4.1,1.3,6.1,0.5C183.9,212.9,185.4,210.4,185.4,206.3z"/>
	<path class="st0" d="M215.7,138.8c-0.1-4.3-2.4-8.1-6-10.4c-3.6-2.2-7.9-2.5-11.6-0.7c-4.3,2-6.7,5.5-7.4,10.7
		c2.1,1.5,3,3.8,3.9,6.3c0.1,0.4,0.3,0.8,0.5,1.2c0.3,0.6,0.6,1.2,0.7,1.9c0.3,1.5,1.3,2.2,2.7,2.8c3.8,1.6,8.2,1.1,11.8-1.3
		C213.8,146.9,215.8,143,215.7,138.8z"/>
	<path class="st0" d="M171.4,142.3c-0.5,0.7-0.9,1.4-1.4,2.1c-1.8,2.6-3.6,5.3-5.3,8.1c-1,1.6-2.3,2.5-4.2,3
		c-4.1,0.9-8.3,1.9-12.4,2.8l-3,0.7c-1.4,0.3-2.8,0.7-4.2,1.1c-1.7,0.6-2.8,2.3-2.5,3.9c0.3,1.9,1.9,3,4.1,3c0.1,0,0.2,0,0.4,0
		c0.4,0,0.8-0.1,1.3-0.2c2.2-0.5,4.3-1,6.5-1.6c4.6-1.1,9.3-2.3,14-3.3c2-0.5,3.5-1.4,4.6-3.2c1.7-2.7,3.5-5.4,5.3-8
		c1-1.4,1.9-2.9,2.9-4.3c0.5-0.7,0.8-1.4,1.1-2c0.8-1.7,0.3-3.3-1.2-4.4c-0.6-0.4-1.3-0.6-2-0.6c-0.9,0-1.7,0.3-2.4,0.9
		C172.4,140.9,171.8,141.6,171.4,142.3z"/>
	<path class="st2" d="M137.2,114.9c-0.5-0.2-0.9-0.2-1.3-0.2c-1.1,0-2,0.5-2.9,1c-5.3,3.4-10.5,6.8-15,9.7c-0.6,0.4-1.1,0.8-1.5,1.2
		c-1.2,1.4-1.4,3.1-0.7,4.7c0.8,1.7,2.2,2.5,4.4,2.6c0.1,0,0.2-0.1,0.4-0.1c0.4-0.1,0.9-0.2,1.4-0.5c5.7-3.6,11.3-7.3,16.7-10.7
		c0.3-0.2,0.6-0.6,0.8-0.9c0.9-1.2,1.1-2.6,0.7-3.9C139.8,116.5,138.7,115.5,137.2,114.9z"/>
	<path class="st3" d="M234.2,151.8c-1,3.8-3.2,5.7-6.4,6.1c-2.7,0.4-5.3,0-7.5-1.8c-2.5-2.1-4.9-4.3-7.3-6.5c1.4-2.1,2.6-3.9,3.9-6
		c1.2,1,2.4,2,3.6,3.1c1.8,1.7,3.5,3.7,5.5,5.2C228.3,153.8,231,154.8,234.2,151.8z"/>
	<path class="st0" d="M192.3,143.7c-0.2-0.4-0.3-0.8-0.5-1.2c-1.3-2.5-3.3-3.5-5.7-2.7c-2.4,0.8-3.5,3.1-2.7,5.7
		c0.5,1.9,1.3,3.7,2,5.5c0.3,0.7,0.6,1.5,0.9,2.2c3.6,0.3,6.2-0.7,8.5-3.1l-0.6-1.5C193.5,146.8,192.9,145.2,192.3,143.7z"/>
	<rect x="74.3" y="172.7" class="st2" width="5.2" height="41"/>
	<rect x="222" y="172.7" class="st2" width="5.2" height="41"/>
	<circle class="st2" cx="158.2" cy="98.4" r="13.2"/>
</g>
</svg>
