<?xml version="1.0" encoding="utf-8"?>
<!-- Generator: Adobe Illustrator 24.0.1, SVG Export Plug-In . SVG Version: 6.00 Build 0)  -->
<svg version="1.1" id="Layer_1" xmlns="http://www.w3.org/2000/svg" xmlns:xlink="http://www.w3.org/1999/xlink" x="0px" y="0px"
	 viewBox="0 0 1480.9 392.9" style="enable-background:new 0 0 1480.9 392.9;" xml:space="preserve">
<style type="text/css">
	.st0{fill:#004467;}
	.st1{fill:#1FC4C4;}
</style>
<g>
	<path class="st0" d="M492.2,135.3h14.9v150.1h-14.9V135.3z M503.1,213.3h48c5.8,0,11-1.3,15.5-4c4.5-2.7,7.9-6.4,10.4-11.3
		c2.4-4.8,3.7-10.4,3.7-16.7c0-6.4-1.2-12-3.7-16.9c-2.4-4.9-5.9-8.6-10.4-11.3c-4.5-2.7-9.6-4-15.5-4h-48v-13.8h47.3
		c8.9,0,16.8,1.9,23.6,5.7s12.1,9.2,15.8,16.2c3.8,7,5.6,15,5.6,24.2c0,9.1-1.9,17.1-5.6,24c-3.8,6.9-9,12.3-15.8,16.1
		c-6.8,3.8-14.7,5.7-23.6,5.7h-47.3V213.3z"/>
	<path class="st0" d="M685.2,280.4c-7.9-4.3-13.9-10.6-18-18.9c-4.1-8.3-6.2-18.2-6.2-29.9v-42.5c0-11.7,2.1-21.7,6.2-29.9
		c4.1-8.3,10.1-14.6,18-18.9c7.9-4.3,17.4-6.5,28.5-6.5s20.7,2.2,28.5,6.5c7.9,4.3,13.9,10.6,18,18.9c4.1,8.3,6.2,18.2,6.2,29.9
		v42.5c0,11.7-2.1,21.7-6.2,29.9c-4.1,8.3-10.1,14.6-18,18.9c-7.9,4.3-17.4,6.5-28.5,6.5S693.1,284.8,685.2,280.4z M734.2,268.3
		c5.7-3.2,10-7.8,13-13.9c3-6.1,4.4-13.4,4.4-22v-44c0-8.6-1.5-16-4.4-22c-3-6.1-7.3-10.7-13-13.9c-5.7-3.2-12.5-4.8-20.5-4.8
		c-8,0-14.8,1.6-20.5,4.8c-5.7,3.2-10,7.8-13,13.9c-3,6.1-4.4,13.4-4.4,22v44c0,8.6,1.5,16,4.4,22c3,6.1,7.3,10.7,13,13.9
		c5.7,3.2,12.5,4.8,20.5,4.8C721.7,273.1,728.5,271.5,734.2,268.3z"/>
	<path class="st0" d="M840.8,135.3h14.9v150.1h-14.9V135.3z M851.3,271.5h85.9v13.8h-85.9V271.5z"/>
	<path class="st0" d="M1004.3,135.3h14.9v150.1h-14.9V135.3z M1014.8,271.5h85.9v13.8h-85.9V271.5z"/>
	<path class="st0" d="M1167.8,135.3h14.9v150.1h-14.9V135.3z M1178,135.3h86.2v13.8H1178V135.3z M1178,203.9h74.9v13.8H1178V203.9z
		 M1178,271.5h86.2v13.8H1178V271.5z"/>
	<path class="st0" d="M1373.8,202.1l43.3-66.8h16.4l-51.3,79.3l-45.8,70.8h-16.4L1373.8,202.1z M1374.1,216.3l-3-4.6l-50-76.4h16.4
		l42.3,64.8l2.7,4.1l53.2,81.1h-16.4L1374.1,216.3z"/>
</g>
<g>
	<path class="st1" d="M942.8,311.1h2.8v28.5h-2.8V311.1z M947.8,339.1c-1.1-0.5-1.9-1.4-2.4-2.7l0.3-4.2c0,0.9,0.2,1.7,0.6,2.6
		c0.4,0.8,1,1.5,1.8,2c0.8,0.5,1.7,0.8,2.7,0.8c1.7,0,3-0.5,3.9-1.5c0.9-1,1.4-2.4,1.4-4.3v-4.4c0-1.9-0.5-3.3-1.4-4.3
		c-0.9-1-2.2-1.5-3.9-1.5c-1,0-2,0.3-2.7,0.8c-0.8,0.5-1.4,1.2-1.8,1.9c-0.4,0.8-0.6,1.6-0.6,2.5l-0.4-3.9c0.7-1.3,1.6-2.3,2.8-2.8
		c1.2-0.6,2.5-0.9,4.1-0.9c1.4,0,2.7,0.3,3.7,1c1,0.6,1.8,1.6,2.3,2.8c0.5,1.2,0.8,2.7,0.8,4.5v4.4c0,1.7-0.3,3.2-0.8,4.4
		c-0.5,1.2-1.4,2.2-2.4,2.8c-1.1,0.6-2.3,1-3.8,1C950.3,339.9,948.9,339.6,947.8,339.1z"/>
	<path class="st1" d="M964.5,319.3h2.9l6.7,18.9l-1.5,3.1L964.5,319.3z M982.5,319.3l-8.7,25.1c-0.3,0.9-0.7,1.7-1.2,2.2
		c-0.5,0.5-1.1,0.9-1.9,1.2c-0.7,0.2-1.7,0.4-2.7,0.4h-0.8v-2.7h0.8c1,0,1.9-0.2,2.5-0.7c0.6-0.5,1.2-1.3,1.6-2.5l7.5-23H982.5z"/>
	<path class="st1" d="M1010.5,311.1h3.4l10.5,28.5h-3.1l-9.1-25.5l-9.1,25.5h-3.1L1010.5,311.1z M1004.9,330.1h15v2.6h-15V330.1z"/>
	<path class="st1" d="M1034,334.3c0,0.9,0.2,1.5,0.6,2c0.4,0.5,1,0.7,1.8,0.7h1.9v2.6h-2.3c-1.5,0-2.7-0.5-3.5-1.4
		c-0.8-0.9-1.2-2.3-1.2-4v-23.1h2.8V334.3z"/>
	<path class="st1" d="M1049.1,338.8c-1.3-0.7-2.3-1.7-3-3.1c-0.7-1.4-1-3-1-4.9v-2.3c0-2,0.3-3.7,1-5.1c0.7-1.4,1.6-2.5,2.9-3.3
		s2.8-1.1,4.6-1.1c1.7,0,3.1,0.4,4.3,1.1c1.2,0.7,2.1,1.8,2.8,3.2c0.6,1.4,0.9,3.1,0.9,5.1v2.3h-14.7v-2.5h12.1v-0.2
		c0-2-0.5-3.6-1.4-4.7c-0.9-1.1-2.3-1.7-4-1.7c-1.9,0-3.4,0.6-4.4,1.7c-1,1.2-1.5,2.8-1.5,4.9v2.6c0,2,0.5,3.6,1.6,4.7
		c1.1,1.1,2.6,1.7,4.6,1.7c0.9,0,1.9-0.2,2.8-0.6c0.9-0.4,1.7-0.9,2.5-1.7l1.9,1.8c-1,1-2.1,1.7-3.4,2.2s-2.5,0.8-3.8,0.8
		C1052,339.9,1050.4,339.5,1049.1,338.8z"/>
	<path class="st1" d="M1069.9,311.1h2.8v28.5h-2.8V311.1z M1071.9,332.7l11.5-13.4h3.3l-15.4,17.3L1071.9,332.7z M1077.6,328.6
		l1.6-2.7l8.5,13.7h-3.4L1077.6,328.6z"/>
	<path class="st1" d="M1097.7,339.6c-1-0.2-2-0.5-2.9-0.9c-0.9-0.4-1.7-0.9-2.4-1.5l1.6-2c1.1,0.7,2.3,1.3,3.4,1.7s2.3,0.6,3.4,0.6
		c1.9,0,3.4-0.3,4.5-1c1.1-0.7,1.6-1.6,1.6-2.8c0-0.9-0.3-1.6-0.8-2c-0.5-0.4-1.2-0.7-1.9-0.9c-0.8-0.2-1.9-0.3-3.3-0.4
		c-0.1,0-0.3,0-0.4,0c-0.1,0-0.3,0-0.4,0c-0.1,0-0.1,0-0.2,0c-0.1,0-0.1,0-0.2,0c-1.3-0.1-2.5-0.3-3.4-0.6c-0.9-0.3-1.7-0.8-2.3-1.5
		c-0.6-0.7-0.9-1.8-0.9-3.1c0-1.3,0.3-2.4,0.9-3.3c0.6-0.9,1.6-1.6,2.8-2.1c1.2-0.5,2.7-0.7,4.4-0.7c0.9,0,1.8,0.1,2.7,0.3
		c0.9,0.2,1.7,0.4,2.6,0.8c0.8,0.3,1.6,0.7,2.2,1.2l-1.6,1.9c-1-0.6-2-1-3-1.3s-2-0.5-2.9-0.5c-1.7,0-3,0.3-4,1
		c-0.9,0.6-1.4,1.5-1.4,2.7c0,0.8,0.3,1.4,0.8,1.8s1.2,0.7,1.9,0.8c0.8,0.1,1.8,0.2,3.2,0.3c0.1,0,0.1,0,0.2,0c0.1,0,0.1,0,0.2,0
		c0,0,0.1,0,0.1,0s0.1,0,0.1,0c1.4,0.1,2.6,0.3,3.6,0.5s1.8,0.8,2.5,1.6s1,2,1,3.5c0,1.3-0.3,2.4-1,3.4s-1.7,1.6-3,2.1
		c-1.3,0.5-2.9,0.7-4.7,0.7C1099.8,339.9,1098.7,339.8,1097.7,339.6z"/>
	<path class="st1" d="M1118.4,338.2c-1.3-1.1-2-2.6-2-4.6c0-1.9,0.6-3.4,1.8-4.5c1.2-1,2.9-1.6,5.1-1.6h6.8l0.3,2.6h-7
		c-1.3,0-2.3,0.3-3,0.9s-1.1,1.4-1.1,2.5c0,1.1,0.4,2,1.3,2.7c0.9,0.6,2.2,0.9,3.8,0.9c1.7,0,3.1-0.2,4.1-0.5s1.4-0.8,1.4-1.5
		l0.4,2.7c-0.4,0.4-0.9,0.8-1.6,1.1c-0.6,0.3-1.4,0.5-2.2,0.7c-0.8,0.2-1.7,0.2-2.6,0.2C1121.6,339.9,1119.7,339.3,1118.4,338.2z
		 M1129.9,326.7c0-1.6-0.4-2.9-1.3-3.8s-2.1-1.4-3.7-1.4c-1,0-1.9,0.2-2.8,0.5c-0.9,0.3-1.7,0.8-2.5,1.3l-2.1-1.4
		c0.8-0.9,1.8-1.6,3-2.2c1.3-0.5,2.7-0.8,4.2-0.8c1.7,0,3.1,0.3,4.3,0.9c1.2,0.6,2.1,1.5,2.7,2.6c0.6,1.1,0.9,2.5,0.9,4.1v13.1h-2.8
		V326.7z"/>
	<path class="st1" d="M1141.6,319.3h2.8v20.3h-2.8V319.3z M1155.1,327.3c0-1.8-0.5-3.2-1.4-4.2c-0.9-1-2.3-1.5-4-1.5
		c-1.7,0-3,0.4-3.9,1.3s-1.4,2.1-1.4,3.7l-0.4-3.9c0.7-1.3,1.7-2.3,2.9-2.9c1.2-0.6,2.6-0.9,4.1-0.9c2.2,0,3.9,0.7,5.1,2.2
		c1.2,1.4,1.8,3.5,1.8,6.1v12.3h-2.8V327.3z"/>
	<path class="st1" d="M1169.4,338.9c-1.1-0.6-1.9-1.6-2.4-2.8s-0.8-2.7-0.8-4.4v-4.4c0-1.7,0.3-3.2,0.8-4.5c0.5-1.2,1.3-2.2,2.3-2.8
		c1-0.6,2.3-1,3.7-1c1.6,0,2.9,0.3,4.1,0.9c1.2,0.6,2.1,1.5,2.8,2.8l-0.4,3.9c0-0.9-0.2-1.7-0.6-2.5c-0.4-0.8-1-1.4-1.8-1.9
		s-1.7-0.7-2.8-0.7c-1.7,0-3,0.5-3.9,1.5s-1.4,2.5-1.4,4.3v4.4c0,1.8,0.5,3.2,1.4,4.3c0.9,1,2.2,1.5,3.9,1.5c1,0,2-0.3,2.7-0.8
		s1.4-1.2,1.8-2c0.4-0.8,0.6-1.7,0.6-2.6l0.3,4.2c-0.5,1.2-1.3,2.1-2.4,2.7c-1.1,0.5-2.5,0.8-4.1,0.8
		C1171.8,339.9,1170.5,339.6,1169.4,338.9z M1179.5,311.1h2.8v28.5h-2.8V311.1z"/>
	<path class="st1" d="M1192.2,338.2c-1.3-1.1-2-2.6-2-4.6c0-1.9,0.6-3.4,1.8-4.5c1.2-1,2.9-1.6,5.1-1.6h6.8l0.3,2.6h-7
		c-1.3,0-2.3,0.3-3,0.9s-1.1,1.4-1.1,2.5c0,1.1,0.4,2,1.3,2.7c0.9,0.6,2.2,0.9,3.8,0.9c1.7,0,3.1-0.2,4.1-0.5s1.4-0.8,1.4-1.5
		l0.4,2.7c-0.4,0.4-0.9,0.8-1.6,1.1c-0.6,0.3-1.4,0.5-2.2,0.7c-0.8,0.2-1.7,0.2-2.6,0.2C1195.3,339.9,1193.5,339.3,1192.2,338.2z
		 M1203.7,326.7c0-1.6-0.4-2.9-1.3-3.8s-2.1-1.4-3.7-1.4c-1,0-1.9,0.2-2.8,0.5c-0.9,0.3-1.7,0.8-2.5,1.3l-2.1-1.4
		c0.8-0.9,1.8-1.6,3-2.2c1.3-0.5,2.7-0.8,4.2-0.8c1.7,0,3.1,0.3,4.3,0.9c1.2,0.6,2.1,1.5,2.7,2.6c0.6,1.1,0.9,2.5,0.9,4.1v13.1h-2.8
		V326.7z"/>
	<path class="st1" d="M1215.4,319.3h2.8v20.3h-2.8V319.3z M1225.8,321.9c-0.6-0.2-1.4-0.3-2.2-0.3c-1.7,0-3,0.5-4,1.4
		c-0.9,0.9-1.4,2.2-1.4,3.8l-0.4-3.9c0.7-1.2,1.7-2.2,2.9-2.8s2.5-1,4-1c0.9,0,1.8,0.1,2.5,0.4c0.8,0.3,1.4,0.7,2,1.2l-1.8,2.3
		C1226.9,322.5,1226.4,322.2,1225.8,321.9z"/>
	<path class="st1" d="M1249.2,311.1h2.8v28.5h-2.8V311.1z M1251.6,337h7.8c2.4,0,4.2-0.5,5.3-1.4c1.1-0.9,1.7-2.2,1.7-3.8v-0.1
		c0-1.1-0.2-2.1-0.6-2.9c-0.4-0.8-1.1-1.4-1.9-1.9c-0.9-0.4-2-0.7-3.4-0.7h-8.8v-2.6h8.8c1.9,0,3.2-0.4,4.2-1.2
		c0.9-0.8,1.4-2,1.4-3.7c0-1.7-0.5-2.9-1.5-3.8c-1-0.8-2.6-1.3-4.6-1.3h-8.2v-2.6h8.9c1.8,0,3.4,0.3,4.6,0.9
		c1.2,0.6,2.2,1.5,2.8,2.7c0.6,1.1,0.9,2.5,0.9,4.1c0,1-0.2,1.9-0.6,2.7c-0.4,0.9-1,1.6-1.7,2.2s-1.7,1-2.9,1.2
		c1.1,0.2,2.1,0.6,3,1.2c0.8,0.6,1.5,1.5,1.9,2.4c0.4,1,0.7,2,0.7,3.1v0.1c0,1.5-0.3,2.9-1,4.1c-0.7,1.2-1.7,2.1-2.9,2.7
		s-2.7,1-4.4,1h-9.2V337z"/>
	<path class="st1" d="M1277.5,319.3h2.8v20.3h-2.8V319.3z M1287.9,321.9c-0.6-0.2-1.4-0.3-2.2-0.3c-1.7,0-3,0.5-4,1.4
		c-0.9,0.9-1.4,2.2-1.4,3.8l-0.4-3.9c0.7-1.2,1.7-2.2,2.9-2.8s2.5-1,4-1c0.9,0,1.8,0.1,2.5,0.4c0.8,0.3,1.4,0.7,2,1.2l-1.8,2.3
		C1289.1,322.5,1288.6,322.2,1287.9,321.9z"/>
	<path class="st1" d="M1298.4,338.2c-1.3-1.1-2-2.6-2-4.6c0-1.9,0.6-3.4,1.8-4.5c1.2-1,2.9-1.6,5.1-1.6h6.8l0.3,2.6h-7
		c-1.3,0-2.3,0.3-3,0.9s-1.1,1.4-1.1,2.5c0,1.1,0.4,2,1.3,2.7c0.9,0.6,2.2,0.9,3.8,0.9c1.7,0,3.1-0.2,4.1-0.5s1.4-0.8,1.4-1.5
		l0.4,2.7c-0.4,0.4-0.9,0.8-1.6,1.1c-0.6,0.3-1.4,0.5-2.2,0.7c-0.8,0.2-1.7,0.2-2.6,0.2C1301.6,339.9,1299.7,339.3,1298.4,338.2z
		 M1309.9,326.7c0-1.6-0.4-2.9-1.3-3.8s-2.1-1.4-3.7-1.4c-1,0-1.9,0.2-2.8,0.5c-0.9,0.3-1.7,0.8-2.5,1.3l-2.1-1.4
		c0.8-0.9,1.8-1.6,3-2.2c1.3-0.5,2.7-0.8,4.2-0.8c1.7,0,3.1,0.3,4.3,0.9c1.2,0.6,2.1,1.5,2.7,2.6c0.6,1.1,0.9,2.5,0.9,4.1v13.1h-2.8
		V326.7z"/>
	<path class="st1" d="M1318.9,345.2h2.2c0.7,0,1.3-0.2,1.7-0.7c0.4-0.5,0.6-1.1,0.6-2v-23.2h2.8v23.2c0,1.7-0.4,3-1.2,4
		c-0.8,0.9-2,1.4-3.5,1.4h-2.6V345.2z M1323.4,311.1h2.9v2.8h-2.9V311.1z"/>
	<path class="st1" d="M1335.2,311.1h2.8v28.5h-2.8V311.1z M1337.2,332.7l11.5-13.4h3.3l-15.4,17.3L1337.2,332.7z M1342.9,328.6
		l1.6-2.7l8.5,13.7h-3.4L1342.9,328.6z"/>
	<path class="st1" d="M1362.4,338.9c-1.3-0.7-2.2-1.7-2.9-3c-0.7-1.3-1-2.9-1-4.8v-3.3c0-1.8,0.3-3.4,1-4.7s1.6-2.3,2.9-3
		c1.3-0.7,2.8-1,4.5-1s3.3,0.3,4.5,1c1.3,0.7,2.2,1.7,2.9,3s1,2.9,1,4.7v3.4c0,1.9-0.3,3.4-1,4.7s-1.6,2.3-2.9,3
		c-1.3,0.7-2.8,1-4.5,1S1363.7,339.5,1362.4,338.9z M1371.1,335.7c1-1.1,1.5-2.6,1.5-4.6v-3.4c0-1.9-0.5-3.5-1.5-4.5
		c-1-1.1-2.3-1.6-4.1-1.6c-1.8,0-3.1,0.5-4.1,1.6c-1,1.1-1.4,2.6-1.4,4.5v3.4c0,2,0.5,3.5,1.4,4.6c1,1.1,2.3,1.6,4.1,1.6
		C1368.7,337.3,1370.1,336.7,1371.1,335.7z"/>
	<path class="st1" d="M1396.2,319.3h3l-8,20.3h-2.2l-8-20.3h3l6.1,16.7L1396.2,319.3z"/>
	<path class="st1" d="M1406.5,311.1h2.8v2.8h-2.8V311.1z M1406.5,319.3h2.8v20.3h-2.8V319.3z"/>
	<path class="st1" d="M1422.1,338.9c-1.3-0.7-2.3-1.6-2.9-2.9c-0.6-1.3-1-2.9-1-4.9v-3.3c0-1.9,0.3-3.6,1-4.9
		c0.7-1.3,1.6-2.3,2.9-2.9c1.3-0.6,2.9-1,4.9-1c1.1,0,2.1,0.1,3,0.4c0.9,0.2,1.7,0.6,2.4,1.1c0.7,0.5,1.3,1.1,1.9,1.8l-2.1,1.9
		c-0.7-0.8-1.5-1.5-2.3-1.9c-0.9-0.4-1.8-0.6-2.9-0.6c-2,0-3.5,0.5-4.5,1.5c-1,1-1.5,2.5-1.5,4.6v3.3c0,2.1,0.5,3.6,1.5,4.7
		s2.5,1.5,4.5,1.5c1.1,0,2.1-0.2,3-0.6s1.7-1,2.5-1.8l1.8,1.8c-0.5,0.7-1.2,1.3-1.9,1.8c-0.7,0.5-1.5,0.8-2.4,1.1
		c-0.9,0.2-1.9,0.4-3,0.4C1425,339.9,1423.4,339.6,1422.1,338.9z M1424.6,314l5.6-7l2.1,1.7l-6,6.6L1424.6,314z"/>
</g>
<g>
	<path class="st1" d="M295.1,104.7c-25.4,0-48.3,11.4-65,29.9c0,0.1,0.1,0.1,0.1,0.2c7.8,11.5,18.2,29.6,18.2,53.5
		c0,8.4,1.8,17.2,5.4,25.2c-0.1-1.8-0.2-3.7-0.2-5.6c0-32.8,19.5-48.7,43.6-48.7c24.1,0,43.6,17.1,43.6,48.7
		c0,33.4-19.5,48.7-43.6,48.7c-3.2,0-6.2-0.3-9.2-0.8c-35.8-4.9-54.6-37.3-54.6-67.5c0-17.2-6.4-30.8-12.9-41.1
		c-11.8,18.9-18.4,44.9-18.4,86.3c0,34.2,0,67.8,0,67.8v46.9c0,4.1,3.3,7.5,7.5,7.5h38.6c4.1,0,7.5-3.3,7.5-7.5V323c0,0,0,0,0,0
		v-21.8c12,6.3,25.3,9.8,39.4,9.8c56.6,0,92.4-46.2,92.4-103.2S346.1,104.7,295.1,104.7z"/>
	<path class="st0" d="M220.4,147c-1.3-2-3.1-4.5-4.9-7c-10.2-14.7-21.3-15.4-41.8-49.6c-14.9-24.6-12.2-37.2-11.5-47.8
		c0-0.1,0-0.2,0-0.3c-0.6-6.9-6.4-12.3-13.5-12.3c-2.6,0-4.9,0.7-7,1.9c0,0,0,0-0.1,0.1c-6.1,4.4-11.8,10.9-14.5,17.9
		c-6.3,16.4-3.3,44.9,6.3,65c9.6,20.1,6.9,30.2,6.9,30.2s-39.9,4.4-65.5,9.7c-10.8,2.2-19.1,4.9-25,7.9c-6.6,3.3-10.5,10.2-9.8,17.6
		c0.4,5,1.1,10,2,15.2c0.4,2.3,1.6,4.3,3.4,5.7l0,0c12.6,7.7,38.4,19.8,75.3,19.8c1.2,0,2.2,0.9,2.3,2c0.1,1.3-0.9,2.5-2.2,2.5
		c-26.1,0-46.6-5.7-61.2-11.9c-1.4-0.5-2.7-1-4-1.5c-3.9-1.6-8.4,1.2-8.5,5.4c0,0.6,0,1.2,0.1,1.9c2.2,7.9,4.7,16.1,7.8,24.4
		c1,2.5,2.4,3.7,4.3,4.7c14.3,6.3,35,12.6,61.4,12.6c1.2,0,2.2,0.9,2.3,2c0.1,1.3-0.9,2.5-2.2,2.5c-17.7,0-32.8-2.6-45.2-6.3
		c-2-0.5-4-1.1-6.1-1.7c-5.5-1.7-7.3-1.2-7.8,1.4c0,0.2,0,0.5,0,0.8c0.1,0.7,0.3,1.3,0.5,2c3.3,7.2,6.8,13.9,10.5,20.3
		c0.2,0.2,0.5,0.4,0.7,0.6c0.6,0.4,1.3,0.7,2.2,1.1c12.3,3.7,27.3,6.5,44.9,6.5c1.2,0,2.2,0.9,2.3,2c0.1,1.3-0.9,2.5-2.2,2.5
		c-15.1,0-28.4-1.9-39.7-4.7c-1.5-0.4-2.6,1.3-1.8,2.5c3.5,5.3,7.2,10.3,11.1,14.9c1.4,1.7,3.2,3.1,5.1,4c6.6,3.2,15.2,5.6,25,5.4
		c4.5-0.1,8.9-0.2,13.2-0.4c0,0,0,0,0,0c0.2,0,0.5,0,0.7,0c0,0,0,0,0,0c8.1-0.4,28.4-3.1,29.2-11.2c0.9-8.8,3.5-15.3,7.5-18.8
		c7.8-6.9,3.5-20.4-2.7-27.6c-0.8-0.9-0.7-2.2,0.1-3.1c3-2.9,8.5-10.9,7.7-19.9c-0.7-7.6-5.6-14.5-14.7-20.5
		c-0.9-0.6-1.3-1.8-0.8-2.8c3.4-7.2,3.8-13.3,1.3-18.5c-3.9-8.3-15.6-14.9-34.7-19.6c-20.9-5.2-40-3.4-40.2-3.4
		c-1.2,0.1-2.3-0.8-2.4-2c-0.1-1.2,0.8-2.3,2-2.4c0.8-0.1,20.1-1.9,41.8,3.5c20.7,5.2,33.1,12.4,37.7,22.1c2.9,6,2.7,12.9-0.5,20.6
		c9.2,6.6,14.3,14.2,15.1,22.8c0.9,9.5-3.8,17.7-7.6,22.1c7.5,9.8,10,24.4,1,32.3c-3.1,2.7-5.2,8.2-6,15.8c-0.4,3.9-3.1,6.8-6.8,9
		c0.5-0.1,1.2-0.2,1.9-0.3c7.6-0.8,15.3-2,22.6-3.9c6.6-1.7,12.8-4.5,16.3-8.8c0-20.3,0-34,0-68.2c0-41.4,6.6-67.3,18.4-86.3
		L220.4,147z"/>
</g>
</svg>
