<svg xmlns="http://www.w3.org/2000/svg" xmlns:xlink="http://www.w3.org/1999/xlink" width="45" height="45" viewBox="0 0 45 45"><defs><clipPath id="a"><circle cx="22.5" cy="22.5" r="22.5" transform="translate(409 1420)" fill="#fff"/></clipPath></defs><g transform="translate(-409 -1420)" clip-path="url(#a)"><g transform="translate(417.024 1427.41)"><g transform="translate(0.977 1.955)"><g transform="translate(0 1.896)"><path d="M14.658,31.673a.62.62,0,0,1-.267-.06L1.332,25.394a.622.622,0,0,1-.354-.562V5.556a.622.622,0,0,1,.889-.562l12.791,6.091L27.449,4.994a.623.623,0,0,1,.889.562V24.833a.622.622,0,0,1-.354.562L14.925,31.613A.62.62,0,0,1,14.658,31.673ZM2.221,24.44l12.437,5.922L27.095,24.44V6.541l-12.17,5.795a.623.623,0,0,1-.534,0L2.221,6.541Z" transform="translate(-0.977 -4.934)" fill="#1fc4c4"/></g><g transform="translate(2.485)"><path d="M16.078,8.3,5.238,3.138a.622.622,0,0,1,.535-1.124L16.078,6.922,26.384,2.014a.622.622,0,0,1,.535,1.124Z" transform="translate(-4.883 -1.955)" fill="#1fc4c4"/></g><g transform="translate(13.059 8.736)"><rect width="1.244" height="19.277" fill="#1fc4c4"/></g></g></g></g></svg>