<?xml version="1.0" encoding="utf-8"?>
<!-- Generator: Adobe Illustrator 24.0.1, SVG Export Plug-In . SVG Version: 6.00 Build 0)  -->
<svg version="1.1" id="Layer_1" xmlns="http://www.w3.org/2000/svg" xmlns:xlink="http://www.w3.org/1999/xlink" x="0px" y="0px"
	 viewBox="0 0 300 300" style="enable-background:new 0 0 300 300;" xml:space="preserve">
<style type="text/css">
	.st0{fill:#1FC4C4;}
	.st1{fill:#FFFFFF;}
	.st2{fill:#004467;}
</style>
<g>
	<path class="st0" d="M150,11.7c76.4,0,138.3,61.9,138.3,138.3S226.4,288.3,150,288.3S11.7,226.4,11.7,150S73.6,11.7,150,11.7
		 M150,0.2c-40,0-77.6,15.6-105.9,43.9S0.2,110,0.2,150s15.6,77.6,43.9,105.9S110,299.8,150,299.8s77.6-15.6,105.9-43.9
		S299.8,190,299.8,150s-15.6-77.6-43.9-105.9S190,0.2,150,0.2L150,0.2z"/>
	<circle class="st1" cx="150" cy="150" r="138.3"/>
</g>
<path class="st0" d="M108.3,233.9c-11.4-5.4-21.4-13-29.6-22.1c-1,2.5-3.4,4.2-6.2,4.2h-3.9c-3.7,0-6.8-3-6.8-6.8V206
	c-1.2-0.9-2-2.4-2-4v-5.7c0-1.6,0.8-3.1,2-4v-7.4c-4.7-11.3-7.2-23.7-7.2-36.6H30.5c0,47.4,27.3,89,69.4,108.1l-5,13.3l40.9-12.9
	L113,221.5L108.3,233.9z"/>
<path class="st0" d="M149.4,29.5c-34.9,0-67.8,15.2-90.4,41.7l-13.3-4.7l10.6,39.1l38.1-21.9L83.7,80c16.6-15.9,38.3-25.3,61.4-26.3
	c0.4-2.8,2.1-5.8,5.1-9.6c3.2-4,6.4-5.9,9.8-5.9c4.6,0,7.9,3.5,10.6,6.4c0.4,0.5,0.9,0.9,1.3,1.3c2.3,2.3,3.1,6.1,2.5,11
	c16.6,4.5,31.8,13.5,44,26.5l17.5-16.5C213.5,43.1,181.9,29.5,149.4,29.5z"/>
<g>
	<path class="st2" d="M240.6,174.8l-6.4-6.4v-15.8c0-2.4-2-4.4-4.4-4.4h-4.4c-2.4,0-4.4,2-4.4,4.4v2.5l-8.9-8.9
		c-1.2-1.1-2.3-2.5-4.4-2.5s-3.2,1.3-4.4,2.5l-28.6,28.6c-1.4,1.4-2.4,2.5-2.4,4.4c0,2.5,1.9,4.4,4.4,4.4h4.4v26.6
		c0,2.4,2,4.4,4.4,4.4h13.3v-22.2c0-2.4,2-4.4,4.4-4.4h8.9c2.4,0,4.4,2,4.4,4.4v22.2h13.3c2.4,0,4.4-2,4.4-4.4v-26.6h4.4
		c2.5,0,4.4-1.9,4.4-4.4C243,177.3,241.9,176.2,240.6,174.8z"/>
</g>
<g>
	<g>
		<path class="st2" d="M142.7,80.7c-6.8,6.8-14.7,13.3-17.8,10.2c-4.5-4.5-7.2-8.3-17-0.4c-9.8,7.9-2.3,13.2,2,17.5
			c5,5,23.6,0.3,41.9-18.1c18.4-18.4,23.1-36.9,18.1-41.9c-4.3-4.3-9.6-11.9-17.5-2c-7.9,9.8-4,12.6,0.4,17
			C156,66,149.5,73.9,142.7,80.7z"/>
	</g>
</g>
<g>
	<path class="st2" d="M135.2,194.3v-16.5l-8.2-23.5c-0.8-2.3-3-4-5.6-4H78.3c-2.6,0-4.8,1.6-5.6,4l-8.2,23.5v16.3
		c-1.1,0.2-2,1.1-2,2.2v5.7c0,1.1,0.9,2.1,2,2.2v5c0,2.2,1.8,3.9,3.9,3.9h3.9c2.2,0,3.9-1.8,3.9-3.9v-3.9h47v3.9
		c0,2.2,1.8,3.9,3.9,3.9h3.9c2.2,0,3.9-1.8,3.9-3.9V204c0.8-0.4,1.3-1.1,1.3-2v-5.7C136.5,195.4,135.9,194.7,135.2,194.3z
		 M78.3,193.5c-3.3,0-5.9-2.6-5.9-5.9c0-3.3,2.6-5.9,5.9-5.9c3.3,0,5.9,2.6,5.9,5.9C84.2,190.9,81.6,193.5,78.3,193.5z M121.5,193.5
		c-3.3,0-5.9-2.6-5.9-5.9c0-3.3,2.6-5.9,5.9-5.9c3.3,0,5.9,2.6,5.9,5.9C127.3,190.9,124.7,193.5,121.5,193.5z M68.4,175.2l6.8-20.3
		h49.5l6.8,20.3H68.4z"/>
</g>
<path class="st0" d="M247.6,120.3l-11.9,28.2c0.8,1.2,1.3,2.6,1.3,4.1v5.1l6.9-1.7c-0.4,5.3-1.3,10.5-2.6,15.5l1.3,1.3l0,0l0,0
	l0.1,0.1c1.5,1.5,3.1,3.3,3.1,6.3c0,4.1-3.2,7.3-7.3,7.3H237v23.8c0,4-3.3,7.3-7.3,7.3h-13.3h-2.3c-10.9,10.2-24.2,18-39.3,22.1
	l6.4,23.2c50.7-14.1,86.3-60.4,87-112.9l13.1-3.2L247.6,120.3z"/>
</svg>
